<?xml version="1.0" encoding="UTF-8"?>
<svg version="1.1" xmlns="http://www.w3.org/2000/svg" width="512" height="512">
<path d="M0 0 C1.07205688 -0.04048462 1.07205688 -0.04048462 2.16577148 -0.08178711 C15.50718392 0.01259908 26.57961638 8.85013866 37.125 16.0625 C38.49870237 16.99054115 39.8730497 17.91762834 41.24804688 18.84375 C47.84220763 23.2939005 54.40215172 27.79414351 60.96559143 32.28941345 C61.74651657 32.82425858 62.52744171 33.3591037 63.33203125 33.91015625 C64.12177841 34.45108414 64.91152557 34.99201202 65.72520447 35.54933167 C75.01731931 41.90864858 84.35072061 48.20652157 93.6875 54.5 C94.61227142 55.12368469 95.53704285 55.74736938 96.48983765 56.38995361 C108.92666452 64.77674138 121.38554121 73.1293141 133.875 81.4375 C143.26582462 87.68447358 152.63005533 93.96458002 161.93701172 100.33618164 C171.76362057 107.05678124 181.63108931 113.71673299 191.5 120.375 C192.88448334 121.30922791 192.88448334 121.30922791 194.29693604 122.2623291 C208.59397219 131.90676307 222.93636541 141.48123903 237.2989502 151.02767944 C247.40204556 157.74629561 257.43357915 164.54190039 267.35839844 171.52197266 C275.99853006 177.5738364 284.77814973 183.41067477 293.5625 189.25 C295.10682651 190.27742283 296.65109741 191.30492924 298.1953125 192.33251953 C298.96024017 192.84151794 299.72516785 193.35051636 300.51327515 193.87493896 C304.36333405 196.43698313 308.21328008 198.99919545 312.0625 201.5625 C312.80949158 202.05993713 313.55648315 202.55737427 314.32611084 203.06988525 C318.6388752 205.94361077 322.94622231 208.82518019 327.24658203 211.71743774 C328.56052572 212.59959818 329.87606773 213.47938364 331.19335938 214.35653687 C350.93171169 227.50510475 350.93171169 227.50510475 355.5 235.625 C355.95246094 236.39972656 356.40492188 237.17445313 356.87109375 237.97265625 C361.47068177 247.97110496 361.95395586 261.14454168 358.5 271.625 C352.47115204 285.36321102 340.07309657 293.09957114 327.9480896 301.0536499 C324.66407232 303.20869175 321.39144834 305.3809571 318.1171875 307.55078125 C317.04977577 308.25732849 317.04977577 308.25732849 315.96080017 308.97814941 C306.51628242 315.23703254 297.13742522 321.5934833 287.75 327.9375 C274.61105421 336.81288229 261.45254519 345.65699384 248.25 354.4375 C238.8589958 360.68419785 229.49493967 366.96458345 220.18798828 373.33618164 C210.36137943 380.05678124 200.49391069 386.71673299 190.625 393.375 C189.24051666 394.30922791 189.24051666 394.30922791 187.82806396 395.2623291 C173.53102781 404.90676307 159.18863459 414.48123903 144.8260498 424.02767944 C134.71411385 430.75217465 124.67542198 437.55582829 114.74023438 444.53955078 C104.86428283 451.45449952 94.81048632 458.10020658 84.7668457 464.76782227 C76.02201723 470.57598674 67.30102082 476.41716869 58.609375 482.3046875 C57.64686829 482.95619278 56.68436157 483.60769806 55.69268799 484.27894592 C51.88932303 486.85382376 48.08609075 489.42885065 44.28820801 492.0118103 C11.41491519 514.36862672 11.41491519 514.36862672 -8.9375 512.5625 C-19.69576161 510.43882425 -28.10422894 503.7625589 -34.4296875 494.98046875 C-38.84621755 487.89800217 -40.32283325 481.12360419 -40.5625 472.875 C-40.59786865 472.19381104 -40.6332373 471.51262207 -40.66967773 470.81079102 C-40.64799413 462.56630629 -36.9727897 455.07619335 -33.9375 447.5625 C-33.36514372 446.11554037 -32.79418957 444.66802536 -32.22460938 443.2199707 C-30.29456126 438.32616253 -28.33526093 433.44426793 -26.375 428.5625 C-25.60401127 426.6388643 -24.83309967 424.71519768 -24.06225586 422.79150391 C-12.68373662 394.41105225 -1.24364165 366.05524672 10.18729973 337.69588184 C14.06279402 328.08099886 17.9374341 318.46577165 21.81212044 308.85056305 C22.7485235 306.5268391 23.68492952 304.20311634 24.62133789 301.87939453 C25.0763447 300.75028152 25.0763447 300.75028152 25.54054356 299.59835815 C27.32785025 295.16315511 29.11529154 290.72800633 30.90286446 286.29291058 C32.00430082 283.56016463 33.10569371 280.82740117 34.20708466 278.09463692 C34.95793611 276.23168733 35.70885592 274.3687653 36.45977783 272.50584412 C36.90770691 271.39443558 37.35563599 270.28302704 37.81713867 269.13793945 C38.20487961 268.17596146 38.59262054 267.21398346 38.99211121 266.22285461 C39.34533951 265.34493759 39.69856781 264.46702057 40.0625 263.5625 C40.44018021 262.68550949 40.81786041 261.80851898 41.20698547 260.904953 C43.80849335 253.78185954 38.89038183 245.87477677 36.125 239.4375 C35.0050365 236.78740857 33.89292128 234.13404767 32.78125 231.48046875 C32.4822731 230.76834732 32.1832962 230.05622589 31.8752594 229.32252502 C28.18462115 220.50808483 24.66018617 211.62762313 21.125 202.75 C13.65123361 184.00415381 6.12300507 165.28062213 -1.42248535 146.56356812 C-10.40819042 124.2736087 -19.39233967 101.98299635 -28.32867432 79.67318726 C-29.18447833 77.53706193 -30.04087109 75.40117237 -30.89788818 73.26553345 C-32.06257939 70.36261436 -33.2250116 67.45880181 -34.38671875 64.5546875 C-34.72173904 63.72070938 -35.05675934 62.88673126 -35.40193176 62.02748108 C-40.12843254 50.1879179 -42.50436591 38.01215593 -38.375 25.5 C-33.75521238 14.95202337 -25.54797663 6.74478762 -15 2.125 C-10.01348954 0.51418904 -5.20214158 0.11710401 0 0 Z M-15.9375 28.5625 C-19.9254276 34.01266772 -19.51760011 40.08203321 -18.9375 46.5625 C-17.93357457 50.47767323 -16.43807741 54.08725701 -14.828125 57.7890625 C-14.39472305 58.83336929 -13.96132111 59.87767609 -13.51478577 60.95362854 C-12.09120098 64.37314878 -10.63911891 67.77979846 -9.1875 71.1875 C-8.1735757 73.61266543 -7.16214136 76.03887322 -6.15307617 78.46606445 C-4.60113692 82.1985069 -3.04800598 85.93040075 -1.48527527 89.65834045 C2.98236895 100.31944092 7.30171839 111.0356729 11.56915283 121.77822876 C13.58831532 126.85974071 15.61644987 131.93766743 17.64453125 137.015625 C18.06534973 138.0696199 18.48616821 139.12361481 18.91973877 140.20954895 C24.00716695 152.94208808 29.13694351 165.65755886 34.26576042 178.37346649 C36.32463991 183.47852862 38.38072595 188.58470935 40.43554688 193.69140625 C41.56491528 196.4974719 42.69448642 199.30345585 43.82421875 202.109375 C44.0978915 202.78913895 44.37156425 203.46890289 44.65353012 204.16926575 C47.67628112 211.67493725 50.7134384 219.17422644 53.79443359 226.65623474 C55.15485217 229.96038607 56.50655378 233.26806247 57.85723877 236.57620239 C58.7143168 238.66311445 59.58591784 240.74350851 60.45849609 242.82397461 C60.95043457 244.03061768 61.44237305 245.23726074 61.94921875 246.48046875 C62.36389404 247.47844482 62.77856934 248.4764209 63.20581055 249.50463867 C65.44975481 257.5141576 63.44781258 263.2236261 60.35546875 270.62890625 C59.96390594 271.59788345 59.57234314 272.56686066 59.16891479 273.56520081 C57.87549641 276.75721222 56.56275431 279.94089768 55.25 283.125 C54.32801041 285.39057033 53.40737805 287.65669343 52.48803711 289.92333984 C50.59840917 294.57666328 48.70141377 299.22687132 46.79785156 303.87451172 C44.3562611 309.83800756 41.93387054 315.80900707 39.5234375 321.78515625 C39.16216263 322.68072739 38.80088776 323.57629852 38.42866516 324.49900818 C37.69695608 326.31297011 36.96529216 328.12695025 36.2336731 329.94094849 C34.7159387 333.70088071 33.193982 337.45909839 31.67219543 341.21739197 C27.40031752 351.76858765 23.14125261 362.32490621 18.88932037 372.88415146 C17.94634345 375.22589036 17.00317825 377.56755337 16.05999756 379.90921021 C13.19176215 387.03112249 10.32521955 394.15370165 7.46525574 401.2789402 C5.92708665 405.1108537 4.3877422 408.94229403 2.84765625 412.7734375 C2.54990547 413.51417385 2.25215469 414.2549102 1.94538116 415.01809311 C-1.68054337 424.032469 -5.35694313 433.02204776 -9.12890625 441.9765625 C-9.85277579 443.70742055 -10.57642188 445.43837207 -11.29980469 447.16943359 C-12.53675481 450.12815828 -13.79854312 453.07409536 -15.07910156 456.01416016 C-18.48151804 464.01870968 -21.29350375 472.4726483 -17.99487305 480.99902344 C-15.33113543 486.0398901 -11.2821279 489.59676398 -5.9375 491.5625 C3.19515313 493.06685831 9.55432736 490.10734637 16.93408203 484.96655273 C18.27457645 484.00196487 19.61151939 483.03242689 20.9453125 482.05859375 C26.81452756 477.84687915 32.72509741 473.72055866 38.7421875 469.72265625 C39.47636902 469.23473602 40.21055054 468.7468158 40.96697998 468.24411011 C42.49450304 467.23052023 44.02252786 466.21768617 45.55102539 465.20556641 C49.79576502 462.39426775 54.03459956 459.57409259 58.2734375 456.75390625 C59.59785858 455.8729277 59.59785858 455.8729277 60.94903564 454.97415161 C70.85051387 448.38187583 80.70690347 441.72308545 90.5625 435.0625 C104.60942749 425.5695485 118.6925295 416.13393329 132.8125 406.75 C143.75513844 399.47707119 154.6351575 392.14165078 165.38476562 384.58544922 C174.51972819 378.18932652 183.80810772 372.02861848 193.09594727 365.85791016 C206.01788059 357.27244372 218.89483448 348.622601 231.75 339.9375 C244.82651027 331.10383191 257.92255744 322.3015535 271.0625 313.5625 C280.07498279 307.56757891 289.08028651 301.56544794 297.98852539 295.41601562 C302.09457311 292.58304227 306.2197928 289.78188649 310.36891174 287.01249695 C312.94218699 285.29439673 315.51153775 283.57046861 318.0809021 281.8465271 C319.34692387 280.99945918 320.61481386 280.15517598 321.88467407 279.31387329 C323.66632704 278.133111 325.44108578 276.94257802 327.21484375 275.75 C328.24601318 275.06292969 329.27718262 274.37585938 330.33959961 273.66796875 C335.02165932 270.04759012 338.62547439 265.78268872 339.43359375 259.828125 C339.5639333 253.90917602 339.4387761 249.27557851 335.84765625 244.4140625 C330.74283516 239.11934654 324.29880336 235.3804604 318.2097168 231.33215332 C311.64342607 226.9655835 305.09701367 222.57022 298.5625 218.15625 C297.72633652 217.59143417 296.89017303 217.02661835 296.02867126 216.44468689 C294.27942084 215.2629155 292.53021006 214.08108542 290.78103638 212.89920044 C275.26660285 202.41732235 259.71883997 191.98835212 244.125 181.625 C233.95808591 174.86755842 223.83038207 168.08073399 213.87744141 161.01025391 C204.54330865 154.42133831 194.99471164 148.14868454 185.47998047 141.82519531 C172.13772975 132.9576515 158.83590031 124.03276142 145.5625 115.0625 C131.51555423 105.56957528 117.43246627 96.13394014 103.3125 86.75 C92.46156236 79.5379927 81.66787451 72.26746055 71.01269531 64.76782227 C57.48047636 55.28957487 43.65963348 46.22465678 29.88833618 37.09910583 C26.15030246 34.62129301 22.42059899 32.13293938 18.71044922 29.61352539 C18.02837402 29.15235321 17.34629883 28.69118103 16.64355469 28.21603394 C15.37849835 27.35973438 14.11606964 26.49953344 12.85693359 25.634552 C2.50273001 18.64261065 -7.13222085 19.54757135 -15.9375 28.5625 Z " fill="#000000" transform="translate(95.9375,-0.5625)"/>
<path d="M0 0 C3.58367809 1.57163758 6.69452472 3.70036294 9.90625 5.921875 C10.829823 6.53710022 11.753396 7.15232544 12.70495605 7.78619385 C15.649998 9.75503673 18.57470574 11.751967 21.5 13.75 C23.43365589 15.04742282 25.3685427 16.34301308 27.3046875 17.63671875 C36.57902846 23.85467227 45.75297351 30.20455082 54.85293579 36.6743927 C61.96642697 41.71693521 69.21896519 46.54327481 76.48852539 51.35693359 C80.73326502 54.16823225 84.97209956 56.98840741 89.2109375 59.80859375 C90.53535858 60.6895723 90.53535858 60.6895723 91.88653564 61.58834839 C101.78801387 68.18062417 111.64440347 74.83941455 121.5 81.5 C134.71970287 90.43391087 147.96742619 99.32302272 161.25598145 108.15420532 C184.50540196 123.61294769 184.50540196 123.61294769 195.75 131.3125 C196.67264648 131.93423096 197.59529297 132.55596191 198.54589844 133.1965332 C206.0732444 138.40115947 206.0732444 138.40115947 208 143 C208.56673008 146.80518767 208.2607644 148.53219495 206.37890625 151.90820312 C203.78880952 155.27447826 201.05485853 157.32910221 197.5 159.53125 C196.14514444 160.40257557 194.79101501 161.27503097 193.4375 162.1484375 C192.71691406 162.60895508 191.99632812 163.06947266 191.25390625 163.54394531 C187.29390656 166.10216002 183.4011747 168.75956852 179.5 171.40625 C177.79090216 172.56126762 176.08158718 173.71596399 174.37207031 174.87036133 C173.49667603 175.46184967 172.62128174 176.05333801 171.71936035 176.66275024 C156.26687806 187.10273084 140.78165358 197.49069715 125.25 207.8125 C114.30733358 215.0853886 103.42734201 222.42084956 92.67773438 229.97705078 C82.80657459 236.88864443 72.75691557 243.52980286 62.71972656 250.1965332 C48.06202232 259.93587574 33.47619258 269.78047333 18.90136719 279.64331055 C17.14388196 280.83122003 15.38639506 282.01912706 13.62890625 283.20703125 C12.82842361 283.74969635 12.02794098 284.29236145 11.20320129 284.85147095 C-0.30334779 292.62589957 -0.30334779 292.62589957 -6.84375 292.4296875 C-10.32800607 291.73536111 -11.91092868 289.7419061 -14 287 C-16.03596405 282.9280719 -14.56162392 277.79897924 -13.25393677 273.61022949 C-12.27824044 271.04181184 -11.23508041 268.51286994 -10.16015625 265.984375 C-9.76659439 265.03190887 -9.37303253 264.07944275 -8.96754456 263.09811401 C-8.11883862 261.04763056 -7.26492682 258.99929551 -6.40631104 256.95294189 C-4.57295167 252.5831731 -2.76488462 248.20308099 -0.95507812 243.82351685 C-0.01986173 241.56115562 0.91667378 239.29933927 1.85449219 237.03805542 C7.21993221 224.09262862 12.42187566 211.08266999 17.58251953 198.05444336 C18.30599522 196.23017909 19.02978749 194.40604035 19.75390625 192.58203125 C20.10565918 191.69593674 20.45741211 190.80984222 20.81982422 189.89689636 C22.90932058 184.65886238 25.06014483 179.45168136 27.27288818 174.26452637 C28.64693205 171.04136735 30.00044003 167.80976089 31.35308838 164.57757568 C31.98257456 163.09142123 32.62283443 161.60977468 33.27484131 160.13336182 C34.16527718 158.11636436 35.01738506 156.08677494 35.86328125 154.05078125 C36.35094971 152.92325439 36.83861816 151.79572754 37.34106445 150.6340332 C38.27918253 145.46030678 36.84401713 141.83476626 35 137 C34.66771896 136.12433884 34.33543793 135.24867767 33.99308777 134.34648132 C32.8703773 131.4810446 31.70478305 128.63633949 30.52734375 125.79296875 C29.8742498 124.19890198 29.8742498 124.19890198 29.20796204 122.57263184 C28.27370817 120.29333033 27.33742718 118.01485884 26.39929199 115.7371521 C23.90609999 109.68296362 21.42848633 103.62240087 18.94921875 97.5625 C18.57268347 96.64294305 18.57268347 96.64294305 18.18854141 95.70480919 C12.38734977 81.53740591 6.68945231 67.32952373 1.02758789 53.10595703 C0.31788596 51.32323627 -0.39183046 49.54052128 -1.1015625 47.7578125 C-1.43867752 46.91066681 -1.77579254 46.06352112 -2.12312317 45.19070435 C-4.16408508 40.0702481 -6.23623283 34.9638067 -8.3359375 29.8671875 C-9.05765137 28.10435425 -9.05765137 28.10435425 -9.79394531 26.3059082 C-10.64137469 24.24095968 -11.4966525 22.17920198 -12.36230469 20.12182617 C-14.19762576 15.63240576 -15.68873809 11.94094716 -15 7 C-11.09084285 0.09382236 -7.69402316 -1.20216806 0 0 Z M19 39 C21.43271242 46.62684094 24.33129655 54.02736022 27.32421875 61.44921875 C27.85296639 62.76628092 28.38158362 64.08339544 28.91007996 65.40055847 C32.2918688 73.81682778 35.71897985 82.2141841 39.16213989 90.60549927 C41.18612215 95.53958923 43.19775137 100.47868963 45.20602608 105.41919136 C46.66923434 109.01641581 48.14021941 112.61012307 49.6262207 116.19799805 C51.10345659 119.76584646 52.56097681 123.34118131 54.00540733 126.92243004 C54.54900212 128.26040078 55.09949139 129.59559472 55.6574192 130.92765236 C60.59943758 142.74487451 60.54104453 148.92380994 55.81433105 160.63720703 C55.37028931 161.70438965 54.92624756 162.77157227 54.46875 163.87109375 C54.00505005 165.01118896 53.5413501 166.15128418 53.06359863 167.32592773 C52.06826571 169.76875461 51.06907133 172.20950585 50.0625 174.64767456 C48.48811767 178.46155628 46.93040753 182.28210807 45.375 186.10375977 C42.26368025 193.74146824 39.13290531 201.37112579 36 209 C33.03148258 216.23326354 30.06752026 223.46832297 27.1159668 230.70852661 C26.01443599 233.40219839 24.90314097 236.09169422 23.79101562 238.78100586 C23.1311132 240.39420606 22.47158371 242.00755888 21.8125 243.62109375 C21.50848267 244.34852783 21.20446533 245.07596191 20.89123535 245.82543945 C20.20143456 247.52741288 19.59190196 249.26155508 19 251 C19.33 251.66 19.66 252.32 20 253 C35.96891079 242.409605 51.86013027 231.70598775 67.73989868 220.98257446 C81.38683709 211.7683753 95.05885434 202.593556 108.78100586 193.49169922 C115.60719289 188.95912965 122.39091852 184.3705761 129.14453125 179.73046875 C135.84944618 175.12568275 142.59723639 170.59241008 149.38671875 166.11328125 C150.23726837 165.55123993 151.08781799 164.98919861 151.96414185 164.41012573 C155.43388693 162.11785921 158.90414294 159.82647822 162.38110352 157.54516602 C164.97046929 155.84491555 167.55404278 154.13617035 170.13671875 152.42578125 C170.93019211 151.90816727 171.72366547 151.39055328 172.54118347 150.85725403 C173.26066666 150.37882553 173.98014984 149.90039703 174.72143555 149.4074707 C175.35695847 148.98923538 175.99248138 148.57100006 176.64726257 148.14009094 C177.09366592 147.76386093 177.54006927 147.38763092 178 147 C178 146.34 178 145.68 178 145 C176.12838302 143.57540607 174.26394277 142.28736614 172.29296875 141.01171875 C171.67834274 140.60570938 171.06371674 140.19970001 170.4304657 139.78138733 C169.07529256 138.88713067 167.71804794 137.99600761 166.35906982 137.10754395 C162.58036091 134.63655146 158.81698704 132.1423328 155.05078125 129.65234375 C154.24310303 129.11932648 153.4354248 128.5863092 152.60327148 128.03713989 C143.88846452 122.2805106 135.23562792 116.43302065 126.58401489 110.58203125 C110.69264005 99.83513746 94.7548071 89.16132243 78.77664185 78.54397583 C68.31182217 71.5866094 57.92763224 64.5381654 47.64501953 57.31323242 C41.3806686 52.92342753 35.03627295 48.6722706 28.625 44.5 C27.76688721 43.94078857 26.90877441 43.38157715 26.0246582 42.80541992 C22.74302976 40.26925486 22.74302976 40.26925486 19 39 Z " fill="#000000" transform="translate(165,110)"/>
</svg>
